PathFileType	4	(X/Y/Z)	c:/Users/goper/Files/vsCode/490R/osim_files/C12/C12_Slow_01.trc
DataRate	CameraRate	NumFrames	NumMarkers	Units                	OrigDataRate	OrigDataStartFrame	OrigNumFrames
120.00	120.00	8	36	mm	120.0	805	1287
                Frame#	Time	LPSIS			LASIS			LTH1			LTH2			LTH3			LTH4			LLFE			LMFE			LSH1			LSH2			LSH3			LSH4			LLMAL			LMMAL			LCAL			LMTP5			LTOE			LMTP1			RPSIS			RASIS			RTH1			RTH2			RTH3			RTH4			RLFE			RMFE			RSH1			RSH2			RSH3			RSH4			RLMAL			RMMAL			RCAL			RMTP1			RTOE			RMTP5		
		X1	Y1	Z1	X2	Y2	Z2	X3	Y3	Z3	X4	Y4	Z4	X5	Y5	Z5	X6	Y6	Z6	X7	Y7	Z7	X8	Y8	Z8	X9	Y9	Z9	X10	Y10	Z10	X11	Y11	Z11	X12	Y12	Z12	X13	Y13	Z13	X14	Y14	Z14	X15	Y15	Z15	X16	Y16	Z16	X17	Y17	Z17	X18	Y18	Z18	X19	Y19	Z19	X20	Y20	Z20	X21	Y21	Z21	X22	Y22	Z22	X23	Y23	Z23	X24	Y24	Z24	X25	Y25	Z25	X26	Y26	Z26	X27	Y27	Z27	X28	Y28	Z28	X29	Y29	Z29	X30	Y30	Z30	X31	Y31	Z31	X32	Y32	Z32	X33	Y33	Z33	X34	Y34	Z34	X35	Y35	Z35	X36	Y36	Z36

805	6.70000	-668.86731	1074.89221	322.79877	-841.66449	1032.91772	396.64557	-762.98553	750.30548	457.48215	-775.50140	706.98840	461.75226	-820.50391	762.88495	476.38971	-825.84503	718.13776	477.65872	-844.75635	539.23450	462.09622	-876.88593	520.33942	337.72284	-749.06091	507.47333	465.47540	-713.93091	476.18073	470.95895	-786.26447	459.93680	472.04453	-745.28668	434.46756	472.80231	-507.32721	271.68317	410.12213	-531.53790	259.82486	335.56720	-466.97308	315.42471	364.33002	-499.48407	119.64354	425.23401	-564.58514	92.60099	367.30649	-532.38043	108.00282	320.76862	-664.96326	1075.32385	208.17847	-850.19214	1043.02490	140.89581	-782.68903	752.49689	90.54946	-792.78992	709.28479	99.84530	-845.14331	760.31641	94.17642	-846.87683	713.51685	101.20248	-824.47101	533.67365	146.76489	-820.63440	541.26648	279.63422	-760.01685	437.84793	128.85799	-760.06543	394.13565	124.02857	-821.88562	428.83823	137.63106	-811.55200	387.60605	130.44635	-754.07733	104.56926	183.25137	-770.60504	120.91297	265.12875	-680.26538	72.48606	221.78168	-892.40558	48.14672	270.32394	-935.19879	65.98011	238.22800	-902.80188	39.98806	162.60724
806	6.70833	-677.68079	1077.02441	322.92319	-850.25983	1034.72961	395.85526	-776.14227	752.38275	458.03528	-789.41516	709.22321	462.25378	-833.65656	765.79004	476.45551	-839.82544	721.21259	477.72681	-861.08142	542.48102	461.28165	-893.30280	524.54407	337.17685	-766.03442	508.91449	464.98447	-731.42755	476.46524	470.62097	-803.69489	461.66452	472.20285	-763.71118	435.89459	472.34274	-528.34277	268.30936	410.09598	-553.28278	256.76636	335.56989	-485.47992	310.17700	363.71884	-527.45526	116.29841	426.93671	-593.60632	91.70139	369.34952	-561.18073	104.63512	322.05325	-675.28217	1076.33618	207.45189	-858.55835	1044.05212	140.12866	-787.58594	753.52893	90.67602	-797.06030	710.17621	99.86975	-850.15619	760.39728	93.79630	-851.18555	713.56116	100.78266	-826.79437	534.15308	146.71361	-822.98499	541.78668	279.65405	-761.44775	438.67938	129.06261	-761.93280	395.27649	123.90940	-823.42883	429.38098	137.39378	-812.79016	388.14401	130.32378	-754.32605	105.21762	183.27956	-771.12628	121.62484	265.01236	-680.52264	73.35635	221.68372	-892.58990	48.11395	270.22693	-935.46948	65.72040	238.15230	-902.94550	39.90028	162.53082
807	6.71667	-686.35364	1079.10864	323.14972	-859.01013	1036.45581	395.07251	-788.63300	754.64227	458.46988	-803.24084	711.53088	462.72858	-846.14563	769.06512	476.73788	-853.51050	724.68475	478.62289	-877.07446	545.75189	460.91306	-909.08533	528.67151	336.71384	-782.50916	510.27640	464.58569	-748.78943	476.92960	470.11520	-821.36743	463.74368	471.56628	-781.74719	437.07248	471.74429	-549.90503	264.29416	410.01315	-575.97003	253.73488	335.17096	-503.63315	304.31909	362.85364	-555.65686	112.41142	428.76392	-623.77533	90.84377	371.69775	-590.59595	101.34866	324.15652	-681.48151	1079.51440	208.79604	-866.51825	1044.93140	139.25157	-792.53601	754.48920	90.82739	-801.47870	711.04102	99.99339	-855.29694	760.59412	93.59275	-855.61438	713.69391	100.46288	-829.11450	534.64478	146.68869	-825.49713	542.27515	279.70703	-762.94336	439.56158	129.19467	-763.02216	396.10507	124.14352	-824.92694	429.88950	137.28998	-814.17523	388.78265	130.26523	-754.60144	106.06065	183.34711	-771.73773	122.37145	264.90897	-680.51385	74.72754	221.27318	-892.81635	48.15103	270.07056	-936.08624	65.33266	238.60184	-903.07019	39.83257	162.44543
808	6.72500	-694.94086	1080.76782	323.49246	-867.67511	1038.05505	394.28937	-800.19342	757.09235	458.92349	-816.80536	713.81189	463.26825	-859.16376	771.76233	476.16733	-865.39294	727.15704	478.21338	-892.95972	548.83691	460.37051	-924.27240	532.70905	336.13486	-798.57745	511.41895	464.00830	-765.91736	476.95132	469.64926	-838.48541	465.59421	470.82309	-799.90826	437.90524	471.05621	-571.53540	259.05145	409.93781	-598.28174	249.58508	335.74283	-524.10419	296.93643	362.34860	-584.74902	108.59141	430.64359	-653.99719	89.55838	374.12387	-620.51428	97.79649	326.31122	-689.57532	1080.91016	209.45978	-874.58447	1045.67480	138.40399	-797.62811	755.47131	91.07153	-805.91174	711.81586	100.17562	-860.39404	760.69073	93.34995	-860.37402	713.76282	100.34341	-831.41119	535.13770	146.65613	-828.26147	542.54730	279.76404	-764.55371	440.42749	129.31032	-764.21661	396.93726	124.33209	-826.53363	430.43515	137.21297	-815.58319	389.43817	130.13521	-754.99591	106.79970	183.45503	-772.32770	123.04769	264.81183	-680.57031	75.68764	221.16664	-892.64764	47.62242	270.32529	-935.53442	64.59828	238.10368	-903.23114	39.75301	162.37953
809	6.73333	-703.54333	1082.26868	323.86917	-876.23297	1039.29395	393.55710	-812.91522	759.03107	459.61237	-829.96527	715.88104	463.85052	-871.87946	774.24792	476.42770	-879.48969	730.53406	478.48792	-908.42334	551.76239	459.60373	-939.30609	536.56531	335.25800	-814.45935	512.11304	463.35327	-782.92407	476.64798	469.12653	-855.95844	467.27841	470.05063	-817.95905	438.48343	470.48550	-593.99054	253.55267	409.91592	-621.39368	244.62808	335.89398	-547.51208	286.92337	360.74249	-614.36462	104.40133	432.38605	-684.45941	87.77296	376.38919	-650.79437	94.20309	328.84698	-697.86823	1082.18054	209.88272	-882.74811	1046.38794	137.71733	-802.45648	757.04803	89.57811	-809.76337	712.95959	99.72672	-865.84436	760.62317	93.37848	-864.92175	713.78540	100.22003	-833.64777	535.55804	146.67451	-831.37506	542.75610	279.78345	-766.39227	441.21274	129.44362	-765.77771	397.72083	124.50945	-828.35419	430.95465	137.18813	-817.05725	389.93839	130.12679	-755.45300	107.90274	183.17293	-772.95154	123.69498	264.84064	-681.17657	76.40952	221.31940	-892.81989	47.45729	270.15103	-938.24646	64.90053	240.31444	-903.34839	39.66481	162.30396
810	6.74167	-712.06506	1083.49561	324.35138	-884.83032	1040.49841	392.92267	-825.34363	760.89502	460.26608	-842.94177	718.17596	464.35138	-884.44525	777.08014	476.28015	-892.68738	733.32739	478.39307	-923.69696	554.63971	458.81915	-953.49957	540.23914	334.52493	-830.04590	512.63397	462.66580	-799.81757	475.94034	468.54761	-873.28613	468.46555	469.29907	-836.01416	438.63004	469.83032	-617.11829	247.97009	409.88654	-644.50970	239.23518	335.88794	-568.58813	278.20074	360.11716	-644.31696	100.06557	434.36008	-715.27753	86.01812	378.74594	-681.24860	90.01593	331.09402	-706.07733	1083.30664	210.31598	-890.71161	1046.94983	137.19208	-806.88715	758.03082	90.17028	-814.37097	713.73468	99.85340	-870.74701	760.80786	93.03748	-869.55389	713.80139	100.08046	-835.87817	535.99103	146.59787	-834.43256	542.93140	279.82199	-768.28577	441.92300	129.47232	-766.26813	399.27234	125.30039	-830.02069	431.59262	137.30482	-818.74347	390.46368	130.11514	-755.79120	108.62720	183.25117	-773.53571	124.26344	264.84903	-681.49176	77.42799	221.33099	-893.05817	47.37907	270.09802	-936.90063	64.50436	238.53195	-903.43872	39.63718	162.20312
811	6.75000	-720.44818	1084.52747	324.80768	-893.34851	1041.60535	392.32990	-839.02472	761.75500	461.54266	-855.90955	720.14551	464.91882	-897.15674	779.79449	476.06870	-905.51050	736.00427	478.33572	-938.73297	557.29272	457.81030	-967.62408	543.79395	333.33368	-846.39337	511.84460	462.12759	-816.52374	474.95566	467.90155	-890.66650	469.57700	468.58380	-853.80157	438.77438	469.10291	-640.50372	241.28882	409.98068	-668.33276	233.09807	336.02170	-590.56970	268.69946	359.63477	-674.69592	95.47570	436.34888	-746.10480	83.94115	380.99200	-711.93512	85.65295	333.17566	-714.29083	1084.19116	210.85982	-898.49463	1047.51782	136.64363	-811.40417	758.88782	90.58528	-819.09637	714.39001	99.95856	-875.67181	760.82135	92.81558	-874.23340	713.89905	99.93278	-838.06451	536.39777	146.56479	-837.38623	543.20178	279.90570	-770.15479	442.64050	129.53734	-768.00037	399.98840	125.40868	-831.95685	432.04434	137.30594	-820.50024	391.00562	130.13797	-757.49292	109.56010	182.46310	-774.53491	124.96070	264.99118	-681.60901	78.50423	221.25826	-893.26617	47.28437	270.04733	-937.21442	64.12885	238.51767	-903.58569	39.53083	162.16252
812	6.75833	-728.84564	1085.29041	325.32266	-901.71527	1042.43542	391.54089	-851.11755	763.37610	462.29224	-868.65271	721.94220	465.52640	-909.34973	782.20111	475.74423	-918.24280	738.49701	478.23917	-953.42474	559.79810	457.08459	-981.19122	546.70172	332.23898	-861.53009	511.55923	461.97412	-832.92200	473.77377	467.32120	-907.22034	470.74719	467.50308	-871.50769	438.73920	468.22299	-664.43262	234.16599	410.09445	-692.44403	226.52386	335.75223	-612.17218	259.37146	359.74463	-705.51569	90.94759	438.43927	-777.26593	81.92131	383.23352	-743.05762	81.18385	335.21713	-722.39185	1084.97656	211.41391	-906.23590	1048.07117	136.09296	-816.33594	759.60681	90.77928	-824.57867	714.75586	100.24690	-880.85419	760.91809	92.67801	-878.89203	714.01508	99.83680	-840.31219	536.83093	146.48372	-840.41156	543.41034	280.00565	-772.15436	443.42911	129.59169	-769.78644	400.74792	125.48770	-833.86798	432.58572	137.31924	-822.16443	391.54047	130.21255	-758.09106	110.32285	182.48863	-775.19220	125.60159	265.00003	-682.11517	79.61351	221.26825	-893.52399	47.21511	270.01108	-937.53845	63.83305	238.49312	-903.68207	39.47663	162.04988
